<?xml version="1.0" encoding="utf-8"?>
<!-- Generator: Adobe Illustrator 16.0.0, SVG Export Plug-In . SVG Version: 6.00 Build 0)  -->
<!DOCTYPE svg PUBLIC "-//W3C//DTD SVG 1.1//EN" "http://www.w3.org/Graphics/SVG/1.1/DTD/svg11.dtd">
<svg version="1.1" id="Layer_1" xmlns="http://www.w3.org/2000/svg" xmlns:xlink="http://www.w3.org/1999/xlink" x="0px" y="0px"
	 width="220.5px" height="96.75px" viewBox="0 0 220.5 96.75" enable-background="new 0 0 220.5 96.75" xml:space="preserve">
<g>
	<g>
		<path fill="#CCC01D" d="M137.116,28.493c0,0-0.382-0.898-0.861-2.545c-0.432-1.65-1.078-4.04-1.222-7.02
			c-0.058-1.488-0.044-3.117,0.231-4.84c0.175-0.854,0.282-1.755,0.634-2.626l0.477-1.338l0.725-1.272
			c0.419-0.905,1.208-1.587,1.865-2.376c0.747-0.686,1.631-1.29,2.519-1.825c0.962-0.363,1.906-0.896,2.918-1.105
			c1.035-0.182,1.976-0.463,3.102-0.544c1.854-0.109,4.073-0.01,6.007,0.43c0.985,0.173,1.936,0.421,2.852,0.745
			c0.931,0.271,1.814,0.63,2.676,0.993c3.455,1.436,6.36,3.351,8.765,5.054c2.397,1.711,4.179,3.405,5.431,4.564
			c1.232,1.183,1.232,1.183,1.232,1.183s-2.406-1.73-7.356-4.708c-2.461-1.509-5.465-3.036-8.786-4.274
			c-1.66-0.622-3.417-1.144-5.217-1.453c-1.812-0.372-3.505-0.444-5.523-0.323c-0.805,0.055-1.756,0.308-2.628,0.437
			c-0.886,0.168-1.647,0.623-2.485,0.901c-0.723,0.448-1.454,0.903-2.105,1.439c-0.547,0.638-1.249,1.146-1.622,1.905l-0.661,1.053
			l-0.482,1.143c-0.377,0.733-0.53,1.544-0.751,2.307c-0.382,1.555-0.51,3.091-0.571,4.516c-0.067,2.856,0.145,5.275,0.403,6.948
			C136.916,27.537,137.116,28.493,137.116,28.493z"/>
		<path fill="#CCC01D" d="M141.276,16.817c0,0.547-0.45,0.994-0.992,0.994c-0.547,0-0.994-0.447-0.994-0.994
			c0-0.549,0.447-0.989,0.994-0.989C140.826,15.829,141.276,16.269,141.276,16.817z"/>
		<circle fill="#CCC01D" cx="146.802" cy="16.817" r="0.99"/>
		<path fill="#CCC01D" d="M142.948,17.388c0,0-0.088,0.549-0.158,1.351c-0.067,0.781-0.191,1.879,0.143,2.758
			c0.253,0.907,1.229,1.24,2.013,1.266c0.781,0.07,1.35,0.037,1.35,0.037c-0.013-0.03-0.492,0.263-1.336,0.418
			c-0.415,0.057-0.955,0.103-1.508-0.122c-0.584-0.187-1.034-0.754-1.268-1.322C141.5,19.298,143.03,17.364,142.948,17.388z"/>
		<path fill="#CCC01D" d="M145.691,25.602c0,0,0.262-0.191,0.636-0.448c0.374-0.261,0.904-0.52,1.351-0.856
			c1.031-0.499,1.564-1.459,1.576-1.539c0,0,0.007,0.076,0.021,0.211c-0.006,0.131,0.067,0.374-0.014,0.616
			c-0.114,0.205-0.198,0.541-0.422,0.756c-0.226,0.206-0.45,0.472-0.726,0.635c-0.558,0.333-1.157,0.536-1.628,0.598
			C146.01,25.638,145.691,25.602,145.691,25.602z"/>
		<path fill="#CCC01D" d="M148.116,21.853c0,0,0.272,0.135,0.636,0.323c0.355,0.194,0.792,0.487,1.234,0.726
			c0.805,0.597,1.805,0.785,1.866,0.789c0,0-0.229,0.153-0.696,0.288c-0.46,0.051-1.07-0.094-1.584-0.391
			c-0.486-0.326-0.901-0.714-1.133-1.088C148.207,22.136,148.116,21.853,148.116,21.853z"/>
	</g>
	<g>
		<path fill="none" d="M179.415,76.148l0.115,5.574c2.13,0.368,4.587,0.6,7.37,0.693c2.786,0.091,5.436,0.14,7.966,0.135
			c0.085-0.881,0.176-1.835,0.268-2.85c0.087-1.028,0.2-1.952,0.336-2.774c-2.758-0.234-5.563-0.404-8.417-0.531
			C184.197,76.272,181.652,76.192,179.415,76.148z"/>
		<path fill="none" d="M139.916,50.08c0.245-0.709,0.351-1.366,0.327-1.963c-0.18-1.983-0.906-3.509-2.182-4.571
			c-1.271-1.062-2.859-1.747-4.758-2.057c-1.155,0.16-2.244,0.393-3.282,0.721c-1.035,0.319-1.938,0.762-2.702,1.323
			c-0.769,0.558-1.357,1.235-1.771,2.027c-0.414,0.792-0.593,1.713-0.549,2.758c0.04,0.795,0.29,1.546,0.752,2.25
			c0.462,0.695,1.04,1.32,1.729,1.859c0.693,0.541,1.471,0.962,2.347,1.271c0.872,0.311,1.735,0.47,2.595,0.476
			c0.557,0.024,1.052,0.061,1.486,0.115c0.432,0.058,0.908,0.151,1.427,0.275c0.678-0.135,1.319-0.427,1.921-0.881
			c0.603-0.448,1.133-0.989,1.595-1.608C139.313,51.453,139.672,50.79,139.916,50.08z"/>
		<path fill="#FFBB00" d="M27.969,48.395c0.061-0.522,0.03-1.031-0.092-1.526c-0.121-0.495-0.293-0.995-0.518-1.512
			c-0.135-0.322-0.334-0.682-0.593-1.078c-0.264-0.391-0.551-0.748-0.871-1.067c-0.319-0.319-0.637-0.591-0.953-0.82
			c-0.313-0.223-0.615-0.352-0.902-0.388c-0.494-0.074-1.032,0.017-1.613,0.278c-0.582,0.261-1.035,0.421-1.358,0.484
			c-0.688,0.121-1.54,0.248-2.554,0.385c-1.017,0.135-2.042,0.258-3.079,0.374c-1.038,0.113-2.003,0.195-2.896,0.258
			c-0.898,0.061-1.551,0.072-1.959,0.042c-0.327-0.036-0.7-0.077-1.107-0.135c-0.411-0.052-0.778-0.028-1.1,0.083
			c-0.363,0.107-0.685,0.451-0.968,1.034c-0.282,0.583-0.478,1.087-0.583,1.519c-0.141,0.53-0.234,1.042-0.272,1.54
			c-0.042,0.503,0.088,0.913,0.382,1.231c0.683,0.731,1.508,1.425,2.472,2.071c0.967,0.651,2.038,0.998,3.229,1.048
			c0.858,0.058,1.855,0.041,2.996-0.05c1.137-0.091,2.155-0.206,3.049-0.338c-0.366,1.325-0.809,2.604-1.286,3.869
			c2.828-0.902,5.917-1.832,9.246-2.762c0.22-0.682,0.447-1.353,0.697-1.985C27.634,50.201,27.844,49.349,27.969,48.395z"/>
		<path fill="#FFBB00" d="M39.911,40.832c-0.161-0.968-0.419-1.847-0.778-2.636c-0.359-0.793-0.837-1.546-1.438-2.262
			c-0.6-0.705-1.367-1.474-2.298-2.291c-0.972-0.861-1.751-1.21-2.336-1.045c-0.587,0.168-1.345,0.792-2.284,1.872
			c-0.778,0.935-1.183,1.781-1.214,2.541c-0.029,0.762,0.192,1.464,0.668,2.111c0.301,0.415,0.561,0.819,0.783,1.214
			c0.221,0.395,0.411,0.837,0.575,1.33c0.162,0.492,0.295,1.056,0.404,1.691c0.106,0.638,0.198,1.405,0.275,2.305
			c0.121,1.79,0.213,3.693,0.285,5.692c2.53-0.651,5.173-1.295,7.943-1.928c-0.081-1.831-0.169-3.597-0.263-5.225
			C40.181,42.919,40.074,41.803,39.911,40.832z"/>
		<path fill="#99933D" d="M13.627,63.28c-2.229,3.507-4.775,6.623-7.645,9.348c-0.513,0.498-0.976,0.85-1.397,1.057
			c-0.419,0.2-0.85,0.412-1.292,0.615c1.094,0.809,2.295,1.452,3.597,1.923c1.306,0.47,2.387,0.712,3.245,0.723
			c1.471,0.036,2.764-0.253,3.883-0.866c1.118-0.615,2.236-1.776,3.353-3.481c0.304-0.481,0.639-1.048,1.002-1.677
			c0.364-0.63,0.753-1.31,1.174-2.041c0.473,0.597,0.905,1.196,1.299,1.799c0.388,0.604,0.734,1.108,1.037,1.526
			c0.564,0.83,1.143,1.528,1.735,2.098c0.597,0.575,1.346,0.96,2.255,1.158c0.246,0.085,0.685,0.126,1.32,0.126
			c0.631-0.002,1.129-0.104,1.488-0.313c0.397-0.197,0.803-0.571,1.208-1.113c0.407-0.539,0.635-1.188,0.689-1.947
			c0.14-1.526,0.007-2.862-0.404-4.013c-0.416-1.141-1.217-2.232-2.398-3.283c-0.343-0.316-0.972-0.789-1.895-1.416
			c-0.922-0.627-1.803-1.235-2.644-1.818c0.637-1.399,1.244-2.815,1.819-4.234c0.575-1.419,1.062-2.809,1.457-4.155
			c0.039-0.124,0.086-0.234,0.126-0.358c-3.329,0.93-6.417,1.859-9.246,2.762C16.382,58.363,15.14,60.899,13.627,63.28z"/>
		<path fill="#FFBB00" d="M51.247,37.994c-0.051-1.327-0.16-2.474-0.322-3.442c-0.16-0.964-0.43-1.844-0.809-2.637
			c-0.379-0.788-0.89-1.543-1.527-2.254c-0.645-0.708-1.429-1.448-2.357-2.215c-0.931-0.771-1.709-1.096-2.336-0.978
			c-0.628,0.123-1.369,0.695-2.225,1.729c-0.817,0.982-1.297,1.807-1.433,2.478c-0.138,0.671,0.142,1.442,0.829,2.317
			c0.604,0.781,1.035,1.655,1.298,2.617c0.263,0.964,0.47,2.342,0.625,4.14c0.098,1.471,0.179,3.209,0.239,5.22
			c0.037,1.218,0.067,2.505,0.092,3.825c2.64-0.577,5.386-1.144,8.229-1.688c-0.051-1.237-0.099-2.453-0.146-3.638
			C51.325,41.429,51.271,39.607,51.247,37.994z"/>
		<path fill="#99933D" d="M43.37,51.444c0.03,2.297,0.054,4.675,0.07,7.117c0.017,2.439,0.042,4.826,0.072,7.153
			c0.034,2.323,0.088,4.529,0.173,6.608c0.085,2.09,0.199,3.933,0.344,5.544c0.13,1.177,0.283,2.396,0.455,3.646
			c0.17,1.248,0.42,2.417,0.752,3.492c0.707,2.341,1.179,4.464,1.417,6.353c2.088-2.885,3.59-5.841,4.511-8.866
			c0.92-3.03,1.346-6.388,1.279-10.09c-0.041-1.092-0.088-2.475-0.136-4.163c-0.045-1.681-0.11-3.518-0.188-5.509
			c-0.08-1.988-0.157-4.098-0.224-6.325s-0.147-4.433-0.235-6.61c-0.036-0.911-0.071-1.805-0.106-2.69
			c-2.843,0.545-5.589,1.111-8.229,1.688C43.341,49.66,43.356,50.534,43.37,51.444z"/>
		<path fill="#99933D" d="M32.661,55.468c-0.935,0.038-1.842,0.124-2.714,0.25c-0.872,0.135-1.628,0.371-2.266,0.737
			c-0.359,0.201-0.715,0.503-1.066,0.896c-0.352,0.391-0.619,0.855-0.803,1.381c-0.068,0.288-0.045,0.61,0.07,0.96
			c0.116,0.354,0.283,0.698,0.503,1.047c0.216,0.347,0.463,0.688,0.744,1.037c0.279,0.344,0.547,0.63,0.799,0.861
			c0.591,0.492,1.335,0.968,2.23,1.402c0.895,0.439,1.687,0.624,2.381,0.547l0.306-0.014c0.024,1.667,0.058,3.297,0.102,4.912
			c0.044,1.608,0.096,3.17,0.158,4.691c0.041,1.039,0.148,2.15,0.319,3.333c0.169,1.177,0.378,2.354,0.631,3.531
			c0.251,1.18,0.532,2.313,0.84,3.418c0.311,1.103,0.627,2.123,0.95,3.058c0.524-1.16,1.164-2.511,1.916-4.059
			c0.759-1.551,1.47-3.121,2.14-4.717c0.524-1.204,0.854-2.681,0.987-4.419s0.211-3.36,0.229-4.882
			c-0.01-1.278-0.032-2.92-0.07-4.908c-0.038-1.994-0.105-4.15-0.201-6.474c-0.091-2.318-0.186-4.689-0.282-7.109
			c-0.021-0.525-0.045-1.015-0.069-1.523c-2.771,0.633-5.414,1.276-7.943,1.928C32.599,52.682,32.637,54.046,32.661,55.468z"/>
		<path fill="#99933D" d="M74.775,43.53c-1.172,0.869-2.29,1.653-3.351,2.354c-1.06,0.698-2.001,1.254-2.817,1.667
			c-0.948,0.462-1.869,0.797-2.764,1.009c-0.895,0.215-1.849,0.256-2.86,0.124c0.286,0.303,0.696,0.685,1.229,1.146
			c0.532,0.462,1.119,0.902,1.761,1.317c0.639,0.415,1.272,0.798,1.894,1.136c0.623,0.341,1.141,0.594,1.561,0.754
			c1.588,0.55,3.104,0.729,4.546,0.53c1.446-0.189,2.905-0.806,4.382-1.834c0.775-0.512,1.667-1.183,2.669-2.008
			c1.001-0.825,2.069-1.735,3.204-2.728c0.497,0.365,1.052,0.789,1.669,1.278c0.614,0.489,1.235,0.977,1.851,1.466
			c0.618,0.492,1.202,0.954,1.76,1.389c0.554,0.44,1.037,0.814,1.451,1.122c0.576,0.415,1.111,0.803,1.606,1.166
			c0.495,0.357,1.037,0.577,1.625,0.646c0.968,0.132,1.98-0.027,3.032-0.487c1.05-0.45,1.786-1.212,2.204-2.279
			c0.091-0.192,0.15-0.607,0.173-1.246c0.022-0.638-0.043-1.231-0.193-1.776c-0.224-0.844-0.585-1.631-1.089-2.362
			c-0.5-0.731-1.002-1.229-1.5-1.493c-0.292-0.157-0.699-0.344-1.217-0.558c-0.522-0.215-1.096-0.443-1.72-0.69
			c-0.626-0.242-1.283-0.484-1.973-0.731c-0.667-0.237-1.302-0.435-1.91-0.605c-5.222,0.445-10.253,0.973-15.069,1.579
			C74.878,43.45,74.826,43.491,74.775,43.53z"/>
		<path fill="#99933D" d="M107.581,64.645c0.36-0.627,0.572-1.21,0.635-1.749c0.059-0.539-0.078-1.122-0.414-1.749
			c-0.338-0.624-0.864-1.075-1.572-1.345c-0.586-0.214-1.264-0.451-2.037-0.698c-0.775-0.248-1.581-0.462-2.418-0.641
			c-0.842-0.179-1.703-0.303-2.588-0.388c-0.884-0.077-1.73-0.107-2.534-0.088c-0.805,0.068-2.024,0.102-3.649,0.096
			c-1.629-0.011-3.457-0.014-5.489-0.014c-2.026,0-4.162-0.014-6.402-0.041c-2.241-0.03-4.396-0.061-6.47-0.083
			c-2.069-0.027-3.939-0.052-5.61-0.088c-1.668-0.035-2.925-0.044-3.773-0.024c-0.975,0.017-1.845-0.055-2.626-0.201
			c-0.777-0.151-1.658-0.541-2.654-1.166c-0.909-0.571-1.693-0.547-2.349,0.063c-0.132,0.143-0.31,0.36-0.529,0.646
			c-0.223,0.289-0.447,0.61-0.67,0.971c-0.225,0.363-0.427,0.712-0.609,1.048c-0.179,0.338-0.315,0.604-0.407,0.795
			c-0.32,0.731-0.344,1.342-0.066,1.848c0.276,0.55,0.637,1.128,1.082,1.729c0.443,0.608,1.073,1.269,1.895,1.983
			c1.027,0.877,2.051,1.466,3.079,1.773c1.023,0.306,2.192,0.41,3.506,0.308c0.848-0.068,2.406-0.123,4.671-0.164
			c2.261-0.045,4.789-0.063,7.582-0.063c-0.054,1.469-0.116,2.945-0.19,4.416c-0.073,1.475-0.133,2.85-0.177,4.125
			c-0.045,1.273-0.076,2.393-0.088,3.35c-0.011,0.96,0.015,1.688,0.081,2.182c0.121,1.328,0.421,2.511,0.89,3.533
			c0.474,1.023,0.984,2.115,1.533,3.265c0.239,0.5,0.495,1.001,0.772,1.501c0.278,0.501,0.447,1.048,0.512,1.645
			c0.313-0.533,0.748-1.08,1.295-1.655c0.551-0.569,0.979-1.022,1.286-1.353c1.143-1.24,1.966-2.648,2.464-4.228
			c0.502-1.584,0.785-3.306,0.851-5.167l0.407-11.498c1.648,0.014,3.106,0.03,4.373,0.044c1.269,0.022,2.219,0.071,2.852,0.141
			c0.506,0.019,1.086,0.065,1.741,0.132c0.65,0.077,1.303,0.151,1.958,0.22c0.651,0.074,1.252,0.144,1.8,0.212
			c0.546,0.068,0.968,0.135,1.262,0.192c1.049,0.188,2.05-0.011,3.001-0.594c0.95-0.583,1.861-1.199,2.729-1.854
			C106.867,65.726,107.22,65.271,107.581,64.645z"/>
		<path fill="#FFBB00" d="M93.223,38.467c0.174-0.188,0.407-0.451,0.694-0.786c0.286-0.333,0.586-0.693,0.893-1.074
			c0.309-0.382,0.599-0.742,0.863-1.077c0.266-0.334,0.466-0.597,0.6-0.791c0.488-0.671,0.601-1.429,0.333-2.273
			c-0.152-0.451-0.513-0.99-1.082-1.624c-0.571-0.634-1.063-1.082-1.476-1.345c-0.498-0.312-1.039-0.477-1.63-0.498
			c-0.466-0.018-0.977,0.026-1.526,0.129c-0.556,0.102-1.046,0.271-1.477,0.5c-1.103,0.059-2.321,0.09-3.65,0.09
			c-1.333,0.003-2.633,0.007-3.902,0.01c-1.267,0.004-2.411,0.001-3.427-0.011c-1.013-0.008-1.731-0.05-2.152-0.113
			c-0.588-0.069-1.187-0.226-1.788-0.468c-0.608-0.245-1.074-0.494-1.402-0.753c-0.332-0.256-0.655-0.366-0.972-0.329
			c-0.316,0.039-0.586,0.129-0.803,0.267c-0.301,0.185-0.694,0.542-1.178,1.064c-0.484,0.524-0.883,0.979-1.191,1.36
			c-0.223,0.288-0.327,0.604-0.319,0.947c0.008,0.345,0.052,0.618,0.132,0.818c0.232,0.547,0.633,1.165,1.203,1.848
			c0.565,0.685,1.034,1.18,1.404,1.488c0.45,0.41,1.091,0.826,1.922,1.249c0.832,0.423,1.667,0.675,2.511,0.753
			c0.506,0.015,1.289,0.021,2.345,0.007c1.06-0.007,2.225-0.042,3.494-0.095c-1.05,0.994-2.163,1.987-3.341,2.978
			c-1.126,0.946-2.247,1.837-3.369,2.673c4.815-0.605,9.847-1.133,15.069-1.579c-0.021-0.006-0.044-0.014-0.064-0.022
			C91.157,40.633,92.254,39.515,93.223,38.467z"/>
		<path fill="#99933D" d="M160.218,73.283c-0.595-0.771-1.228-1.54-1.908-2.305c-0.775-0.861-1.518-1.502-2.244-1.914
			c-0.731-0.418-1.441-0.655-2.127-0.721c-0.689-0.071-1.546-0.017-2.567,0.154c-1.022,0.173-2.211,0.368-3.572,0.583
			c-0.81,0.137-1.982,0.277-3.521,0.429c-1.536,0.146-3.27,0.316-5.189,0.506c0.021-0.448,0.036-0.883,0.036-1.312
			c0-0.424-0.007-0.831-0.024-1.229c-0.03-0.6-0.101-1.381-0.21-2.346c-0.109-0.971-0.222-1.799-0.344-2.491
			c1.537-0.226,2.979-0.732,4.337-1.513c1.357-0.792,2.541-1.791,3.554-3.018c1.018-1.215,1.817-2.602,2.409-4.146
			c0.594-1.554,0.893-3.198,0.896-4.947c0.011-2.442-0.492-4.7-1.513-6.771c-0.243-0.492-0.506-0.968-0.785-1.426
			c-9.922-0.459-19.395-0.584-28.407-0.441c-0.909,1.111-1.669,2.307-2.28,3.583c-0.822,1.708-1.188,3.457-1.102,5.247
			c0.089,1.941,0.503,3.718,1.246,5.329c0.74,1.612,1.71,3.022,2.903,4.238c1.192,1.216,2.568,2.197,4.129,2.945
			c1.561,0.751,3.179,1.234,4.86,1.455c-0.525,0.671-0.642,1.375-0.348,2.109c0.664,1.416,1.043,3.068,1.133,4.961l0.021,0.445
			c-1.921,0.143-3.684,0.247-5.292,0.327c-1.603,0.074-2.879,0.11-3.821,0.107c-0.606-0.071-1.156-0.121-1.65-0.146
			c-0.491-0.028-1.087-0.103-1.773-0.221c-0.697-0.162-1.375-0.418-2.035-0.762c-0.662-0.341-1.408-0.718-2.24-1.13
			c-0.88-0.454-1.544-0.674-1.994-0.649c-0.451,0.02-0.88,0.19-1.295,0.509c-0.246,0.212-0.522,0.512-0.826,0.899
			c-0.301,0.388-0.604,0.801-0.906,1.24c-0.301,0.44-0.568,0.875-0.806,1.31c-0.236,0.439-0.411,0.78-0.528,1.031
			c-0.193,0.509-0.256,1.015-0.19,1.51c0.067,0.495,0.282,0.929,0.642,1.314c0.362,0.385,0.833,0.847,1.417,1.392
			c0.582,0.547,1.232,1.105,1.947,1.666c1.69,1.312,3.559,2.09,5.607,2.315s4.076,0.242,6.084,0.047
			c0.642-0.033,1.69-0.102,3.141-0.223s3.085-0.247,4.903-0.382c1.819-0.135,3.726-0.286,5.736-0.46
			c2.005-0.167,3.898-0.311,5.675-0.412c1.771-0.115,3.327-0.203,4.649-0.264c1.328-0.061,2.248-0.104,2.76-0.13
			c0.431-0.021,0.963-0.021,1.611,0c0.641,0.014,1.323,0.047,2.03,0.088c0.708,0.042,1.387,0.1,2.036,0.168
			c0.642,0.069,1.157,0.118,1.548,0.151c0.862,0.11,1.756-0.036,2.685-0.426c0.923-0.394,1.538-0.872,1.861-1.434
			c0.319-0.465,0.569-1.003,0.758-1.611c0.188-0.604,0.206-1.081,0.062-1.425C161.203,74.652,160.811,74.053,160.218,73.283z
			 M137.256,53.683c-0.602,0.454-1.243,0.746-1.921,0.881c-0.52-0.124-0.996-0.218-1.427-0.275
			c-0.435-0.055-0.929-0.091-1.486-0.115c-0.859-0.006-1.723-0.165-2.595-0.476c-0.876-0.309-1.654-0.729-2.347-1.271
			c-0.689-0.539-1.266-1.164-1.729-1.859c-0.462-0.704-0.712-1.455-0.752-2.25c-0.044-1.045,0.135-1.966,0.549-2.758
			c0.414-0.792,1.002-1.469,1.771-2.027c0.763-0.561,1.667-1.004,2.702-1.323c1.038-0.328,2.127-0.561,3.282-0.721
			c1.899,0.311,3.487,0.996,4.758,2.057c1.276,1.062,2.002,2.587,2.182,4.571c0.023,0.597-0.083,1.254-0.327,1.963
			c-0.244,0.71-0.603,1.373-1.064,1.994C138.39,52.693,137.859,53.234,137.256,53.683z"/>
		<path fill="#FFBB00" d="M147.444,40.817c-0.896-1.474-1.983-2.782-3.263-3.919c-1.678-1.489-3.566-2.636-5.667-3.436
			c-2.094-0.797-4.167-1.147-6.225-1.051c-0.642,0.033-1.205,0.121-1.69,0.267c-0.484,0.15-0.933,0.433-1.345,0.85
			c-1.525,0.422-3.108,1.133-4.755,2.133c-1.646,1.002-3.144,2.207-4.494,3.616c-0.34,0.356-0.664,0.725-0.969,1.099
			C128.049,40.232,137.522,40.357,147.444,40.817z"/>
		<path fill="#99933D" d="M205.7,70.098c-0.597-0.558-1.152-0.956-1.664-1.198c-0.236-0.124-0.47-0.185-0.71-0.195
			c-0.236-0.011-0.508-0.011-0.819,0.005c-0.313,0.014-0.718,0.022-1.22,0.028c-0.502,0.011-1.105-0.03-1.813-0.119
			c-0.997-0.096-2.316-0.181-3.96-0.255c-1.642-0.072-3.438-0.121-5.39-0.148c-1.957-0.028-3.966-0.045-6.042-0.053
			c-2.071-0.006-4.037,0.033-5.899,0.118c-0.459-0.459-1.089-0.778-1.891-0.951c-0.802-0.171-1.648-0.226-2.534-0.148
			c-0.886,0.068-1.759,0.253-2.632,0.547c-0.87,0.3-1.601,0.649-2.188,1.072c-0.739,0.522-1.062,1.104-0.97,1.747
			c0.091,0.641,0.305,1.438,0.646,2.395c0.51,1.463,0.886,2.935,1.133,4.408c0.243,1.482,0.489,2.935,0.742,4.359
			c0.248,1.425,0.555,2.849,0.922,4.282c0.367,1.424,0.877,2.849,1.528,4.262c0.525,1.131,1.63,1.51,3.315,1.136
			c0.334-0.041,0.652-0.189,0.949-0.453c2.818-0.154,5.857-0.138,9.11,0.063c3.259,0.194,6.452,0.442,9.586,0.739
			c0.172,0.398,0.425,0.657,0.753,0.786c1.5,0.562,2.595,0.581,3.284,0.056c0.54-0.418,1.027-0.886,1.456-1.392
			c0.426-0.503,0.751-1.089,0.965-1.744c0.383-1.149,0.834-2.876,1.337-5.178c0.5-2.311,0.998-4.697,1.485-7.167
			c0.344-0.212,0.621-0.465,0.824-0.759c0.201-0.297,0.407-0.66,0.613-1.098c0.313-0.648,0.451-1.309,0.407-1.977
			c-0.041-0.669-0.121-1.222-0.247-1.673C206.657,71.146,206.297,70.648,205.7,70.098z M195.134,79.701
			c-0.092,1.015-0.183,1.969-0.268,2.85c-2.53,0.005-5.18-0.044-7.966-0.135c-2.783-0.094-5.24-0.325-7.37-0.693l-0.115-5.574
			c2.237,0.044,4.782,0.124,7.638,0.247c2.854,0.127,5.659,0.297,8.417,0.531C195.334,77.749,195.221,78.673,195.134,79.701z"/>
		<path fill="#99933D" d="M216.228,59.697c-1.596-1.672-3.427-2.832-5.498-3.479c-0.984-0.319-1.991-0.569-3.006-0.748
			c-1.015-0.188-2.023-0.303-3.024-0.344c-0.855-0.039-2.167-0.077-3.929-0.129c-1.759-0.047-3.815-0.091-6.174-0.141
			c-2.359-0.044-4.896-0.071-7.613-0.08c-2.715-0.005-5.422-0.014-8.113-0.017c-2.69-0.005-5.278,0.02-7.761,0.083
			c-2.479,0.061-4.676,0.132-6.583,0.212c-0.673,0.03-1.381,0.233-2.137,0.615c-0.755,0.383-1.454,0.842-2.098,1.367
			s-1.19,1.1-1.648,1.713c-0.453,0.613-0.692,1.205-0.721,1.755c-0.023,0.613,0.347,1.166,1.11,1.672
			c0.766,0.504,1.589,0.996,2.475,1.477c0.696,0.36,1.499,0.636,2.398,0.812c0.893,0.179,1.776,0.231,2.64,0.157
			c2.819-0.157,6.05-0.265,9.697-0.33c3.647-0.063,7.473-0.066,11.475-0.009c4.002,0.069,8.048,0.195,12.137,0.401
			c4.091,0.21,7.963,0.498,11.615,0.875c0.712,0.091,1.375,0.157,1.993,0.209c0.616,0.061,1.155,0.053,1.609-0.011
			s0.855-0.226,1.201-0.489c0.347-0.262,0.644-0.69,0.911-1.287c0.426-0.977,0.566-1.735,0.426-2.271
			C217.465,61.183,217.003,60.506,216.228,59.697z"/>
		<path fill="#FFBB00" d="M204.454,44.267c-1.207-0.798-2.828-1.243-4.876-1.331c-2.709-0.116-5.784-0.193-9.214-0.231
			c-3.43-0.036-6.747,0.042-9.945,0.234c-0.026-0.5-0.04-0.151-0.04-0.68c-0.006-0.524,0.007-0.759,0.033-0.759h0.071
			c0.907,0,2.335-0.883,4.289-0.88c1.955,0,4.039-0.407,6.25-0.369c2.217,0.042,4.35-0.135,6.396-0.102
			c2.049,0.033,3.6-0.036,4.646,0.008c1.188,0.051,1.966-0.438,2.34-1.366c0.374-0.924,0.474-2.082,0.289-3.424l-0.182-0.683
			c0.322-0.874,0.639-1.837,0.943-2.876c0.309-1.039,0.589-2.042,0.845-3c0.258-0.957,0.462-1.852,0.615-2.681
			c0.154-0.821,0.265-1.457,0.333-1.895c0.014-0.276-0.061-0.587-0.209-0.926c-0.154-0.336-0.344-0.665-0.563-0.983
			c-0.226-0.31-0.487-0.586-0.786-0.819c-0.306-0.238-0.548-0.382-0.734-0.45c-0.234-0.062-0.66-0.123-1.279-0.179
			c-0.618-0.052-1.402-0.072-2.358-0.061l-13.512,0.083c-1.479-0.007-2.955-0.07-4.43-0.192c-1.468-0.116-3.028-0.435-4.673-0.948
			c-1.32-0.392-2.2-0.454-2.637-0.198c-0.441,0.26-0.877,0.685-1.308,1.273c-0.43,0.591-0.806,1.268-1.124,2.031
			c-0.268,0.598-0.296,1.056-0.093,1.367c0.201,0.313,0.549,0.731,1.052,1.252c0.551,0.521,1.183,0.978,1.909,1.37
			c0.719,0.392,1.48,0.703,2.283,0.93c0.797,0.229,1.61,0.415,2.438,0.563c0.827,0.148,1.619,0.267,2.382,0.354
			c0.146,0.005,0.595,0.036,1.353,0.099c0.761,0.061,1.664,0.114,2.71,0.157c1.045,0.048,2.179,0.081,3.393,0.106
			c1.214,0.024,2.342,0.059,3.39,0.103c1.049,0.047,1.952,0.07,2.713,0.077c0.765,0.005,1.24-0.017,1.437-0.065l-0.485,2.97
			c-1.43-0.003-3.194-0.023-5.291-0.057c-2.093-0.038-4.203-0.071-6.321-0.108c-2.121-0.036-4.109-0.093-5.961-0.175
			c-1.858-0.078-3.305-0.198-4.348-0.354c-0.428-0.073-0.925-0.066-1.5,0.019c-0.576,0.088-1.14,0.366-1.682,0.843
			c-0.545,0.476-0.836,0.919-0.881,1.333c-0.039,0.416-0.022,0.79,0.06,1.125c0.077,0.392,0.205,0.755,0.383,1.097
			c-0.039,0.887-0.01,2.108,0.089,3.66c0.072,1.114,0.188,2.148,0.326,3.149c10.77,1.062,21.991,2.519,33.648,4.427
			C206.033,45.785,205.307,44.833,204.454,44.267z"/>
		<path fill="#99933D" d="M171.635,45.928c-0.374,0.957-0.576,1.82-0.604,2.591c-0.039,0.778,0.028,1.402,0.202,1.884
			c0.167,0.479,0.389,0.819,0.671,1.025c0.277,0.206,0.591,0.33,0.947,0.371c0.354,0.05,0.724,0.05,1.111,0.009
			c2.148-0.242,4.526-0.401,7.133-0.484c2.597-0.079,5.236-0.107,7.901-0.077c2.666,0.036,5.273,0.094,7.818,0.174
			c2.55,0.082,4.87,0.17,6.961,0.259c1.141,0.049,2.114-0.086,2.912-0.416c0.8-0.321,1.015-1.105,0.641-2.337
			c-0.209-0.677-0.44-1.276-0.69-1.821c-11.657-1.908-22.879-3.366-33.648-4.427c0.055,0.401,0.104,0.814,0.169,1.196
			C172.521,44.289,172.009,44.977,171.635,45.928z"/>
	</g>
</g>
</svg>
